<?xml version="1.0" encoding="utf-8"?>
<!-- Generator: Adobe Illustrator 16.0.0, SVG Export Plug-In . SVG Version: 6.00 Build 0)  -->
<!DOCTYPE svg PUBLIC "-//W3C//DTD SVG 1.1//EN" "http://www.w3.org/Graphics/SVG/1.1/DTD/svg11.dtd">
<svg version="1.1" xmlns="http://www.w3.org/2000/svg" xmlns:xlink="http://www.w3.org/1999/xlink" x="0px" y="0px"
	 width="199.375px" height="52.12px" viewBox="0 0 199.375 52.12" enable-background="new 0 0 199.375 52.12" xml:space="preserve">
<g id="Layer_2">
</g>
<g id="Layer_1">
	<g>
		<g>
			<path fill="none" stroke="#FFFFFF" stroke-width="2" stroke-miterlimit="10" d="M159.822,8.39c-2.618,0-4.685,1.533-6.194,4.6
				c-1.511,3.066-2.267,7.33-2.267,12.79c0,11.37,2.966,17.055,8.897,17.055c2.596,0,5.315-0.828,8.158-2.484v8.124
				c-2.396,1.59-5.461,2.385-9.199,2.385c-5.529,0-9.775-2.199-12.741-6.598s-4.447-10.581-4.447-18.549
				c0-7.967,1.526-14.178,4.582-18.632c3.056-4.454,7.302-6.681,12.74-6.681c1.79,0,3.508,0.246,5.154,0.739
				c1.644,0.492,3.407,1.354,5.287,2.584l-3.022,7.42c-1.007-0.693-2.081-1.326-3.222-1.897
				C162.407,8.675,161.165,8.39,159.822,8.39z"/>
			
				<rect x="125.69" y="0.401" fill="none" stroke="#FFFFFF" stroke-width="2" stroke-miterlimit="10" width="8.594" height="49.083"/>
			<path fill="none" stroke="#FFFFFF" stroke-width="2" stroke-miterlimit="10" d="M117.702,24.586
				c0,8.102-1.649,14.296-4.952,18.581c-3.303,4.287-8.052,6.431-14.252,6.431H86.48V0.515h13.127c5.708,0,10.15,2.111,13.328,6.329
				C116.112,11.063,117.702,16.977,117.702,24.586z M108.336,24.854c0-10.966-3.021-16.45-9.064-16.45h-3.66v33.203h2.954
				c3.334,0,5.796-1.395,7.386-4.18C107.541,34.641,108.336,30.451,108.336,24.854z"/>
		</g>
		<g>
			<polygon fill="none" stroke="#FFFFFF" stroke-width="2" stroke-miterlimit="10" points="198.975,50.303 176.648,50.303 
				176.648,0.769 198.975,0.769 198.975,8.731 185.863,8.731 185.863,20.521 198.027,20.521 198.027,28.517 185.863,28.517 
				185.863,42.239 198.975,42.239 			"/>
		</g>
		<g>
			<path fill="#FFFFFF" d="M20.348,5.632L4.936,16.629c0,0-1.963,1.009-1.765,2.817c0.198,1.808,2.086,20.357,2.086,20.357
				s0.815,2.686,2.254,3.289c1.439,0.604,18.566,8.553,18.566,8.553s1.436,0.883,3.171-0.299
				c2.232-1.52,16.498-11.391,16.498-11.391s1.615-0.849,1.342-3.046c-0.271-2.196-2.173-20.317-2.173-20.317
				s0.197-2.095-1.959-3.109c-2.154-1.013-18.611-8.663-18.611-8.663S22.66,3.983,20.348,5.632"/>
			<path fill="#A8AAAD" d="M44.991,17.304c0,0-0.005-2.466-1.455-1.278c-1.449,1.188-17.175,12.667-17.175,12.667
				s-2.189,2.119-1.868,3.383c0.32,1.265,2.762,18.84,2.762,18.84s0.382,1.222,2.244,0.361c0.719-0.333,16.532-11.433,16.532-11.433
				s1.271-0.774,1.059-2.935C46.877,34.75,44.991,17.304,44.991,17.304"/>
			<path fill="#D2D3D4" d="M3.378,20.363c0,0,0.294-2.642,1.924-1.563c1.243,0.823,17.062,9.986,17.062,9.986
				s1.766,1.354,2.128,3.29c0.365,1.937,2.729,19,2.729,19s0.114,1.196-1.144,0.569c-1.104-0.551-18.566-8.553-18.566-8.553
				s-1.9-1.596-2.06-3.316S3.378,20.363,3.378,20.363"/>
			<path fill="#F2F2F2" d="M5.302,18.8l17.824,10.432c0,0,1.526,0.563,3.235-0.539c1.708-1.103,17.49-12.903,17.49-12.903
				s1.14-1.056-0.896-2.306c-1.428-0.877-18.61-8.663-18.61-8.663s-2.021-0.626-3.998,0.811C18.371,7.069,4.936,16.629,4.936,16.629
				S4.054,18.243,5.302,18.8"/>
			<path fill="none" stroke="#231F20" stroke-width="0.315" stroke-miterlimit="10" d="M20.348,5.632L4.936,16.629
				c0,0-1.963,1.009-1.765,2.817c0.198,1.808,2.086,20.357,2.086,20.357s0.815,2.686,2.254,3.289
				c1.439,0.604,18.566,8.553,18.566,8.553s1.436,0.883,3.171-0.299c2.232-1.52,16.498-11.391,16.498-11.391
				s1.615-0.849,1.342-3.046c-0.271-2.196-2.173-20.317-2.173-20.317s0.197-2.095-1.959-3.109
				c-2.154-1.013-18.611-8.663-18.611-8.663S22.66,3.983,20.348,5.632z"/>
			<path fill="#FFFFFF" d="M60.771,3.417l-18.6,3.547c0,0-2.205,0.096-2.779,1.822c-0.575,1.725-6.615,19.365-6.615,19.365
				s-0.383,2.779,0.672,3.931c1.053,1.149,13.291,15.53,13.291,15.53s0.934,1.402,3.006,1.055
				c2.662-0.448,19.749-3.452,19.749-3.452s1.821-0.096,2.492-2.205c0.671-2.108,6.519-19.365,6.519-19.365s1.055-1.821-0.479-3.643
				C76.493,18.181,64.741,4.351,64.741,4.351S63.558,2.884,60.771,3.417"/>
			<path fill="#A8AAAD" d="M78.277,24.321c0,0,1.025-2.242-0.787-1.769c-1.815,0.473-20.898,4.328-20.898,4.328
				s-2.875,1.009-3.111,2.291s-5.366,18.271-5.366,18.271S47.951,48.709,50,48.707c0.793-0.001,19.798-3.474,19.798-3.474
				s1.479-0.173,2.188-2.224C72.697,40.959,78.277,24.321,78.277,24.321"/>
			<path fill="#D2D3D4" d="M39.197,9.705c0,0,1.371-2.278,2.399-0.616c0.786,1.269,11.327,16.204,11.327,16.204
				s1.036,1.967,0.557,3.879c-0.479,1.911-5.465,18.401-5.465,18.401s-0.395,1.134-1.275,0.039
				c-0.773-0.962-13.291-15.531-13.291-15.531s-1.06-2.244-0.483-3.874C33.541,26.578,39.197,9.705,39.197,9.705"/>
			<path fill="#F2F2F2" d="M41.597,9.089l11.83,16.928c0,0,1.151,1.151,3.164,0.863c2.015-0.288,21.282-4.41,21.282-4.41
				s1.479-0.483,0.153-2.468C77.095,18.607,64.741,4.351,64.741,4.351s-1.574-1.414-3.97-0.934c-2.398,0.479-18.6,3.547-18.6,3.547
				S40.697,8.061,41.597,9.089"/>
			<path fill="none" stroke="#231F20" stroke-width="0.315" stroke-miterlimit="10" d="M60.771,3.417l-18.6,3.547
				c0,0-2.205,0.096-2.779,1.822c-0.575,1.725-6.615,19.365-6.615,19.365s-0.383,2.779,0.672,3.931
				c1.053,1.149,13.291,15.53,13.291,15.53s0.934,1.402,3.006,1.055c2.662-0.448,19.749-3.452,19.749-3.452s1.821-0.096,2.492-2.205
				c0.671-2.108,6.519-19.365,6.519-19.365s1.055-1.821-0.479-3.643C76.493,18.181,64.741,4.351,64.741,4.351
				S63.558,2.884,60.771,3.417z"/>
		</g>
	</g>
</g>
</svg>
